<svg xmlns="http://www.w3.org/2000/svg" viewBox="0 0 1600 900" width="1600" height="900"
  role="img" aria-label="Leg 3 — The Lattice">
  <rect width="1600" height="900" fill="#05070d"/>
  <g stroke="#4a5568" stroke-width="1" opacity="0.14"><line x1="0" y1="0" x2="0" y2="900"/><line x1="80" y1="0" x2="80" y2="900"/><line x1="160" y1="0" x2="160" y2="900"/><line x1="240" y1="0" x2="240" y2="900"/><line x1="320" y1="0" x2="320" y2="900"/><line x1="400" y1="0" x2="400" y2="900"/><line x1="480" y1="0" x2="480" y2="900"/><line x1="560" y1="0" x2="560" y2="900"/><line x1="640" y1="0" x2="640" y2="900"/><line x1="720" y1="0" x2="720" y2="900"/><line x1="800" y1="0" x2="800" y2="900"/><line x1="880" y1="0" x2="880" y2="900"/><line x1="960" y1="0" x2="960" y2="900"/><line x1="1040" y1="0" x2="1040" y2="900"/><line x1="1120" y1="0" x2="1120" y2="900"/><line x1="1200" y1="0" x2="1200" y2="900"/><line x1="1280" y1="0" x2="1280" y2="900"/><line x1="1360" y1="0" x2="1360" y2="900"/><line x1="1440" y1="0" x2="1440" y2="900"/><line x1="1520" y1="0" x2="1520" y2="900"/><line x1="1600" y1="0" x2="1600" y2="900"/><line x1="0" y1="0" x2="1600" y2="0"/><line x1="0" y1="80" x2="1600" y2="80"/><line x1="0" y1="160" x2="1600" y2="160"/><line x1="0" y1="240" x2="1600" y2="240"/><line x1="0" y1="320" x2="1600" y2="320"/><line x1="0" y1="400" x2="1600" y2="400"/><line x1="0" y1="480" x2="1600" y2="480"/><line x1="0" y1="560" x2="1600" y2="560"/><line x1="0" y1="640" x2="1600" y2="640"/><line x1="0" y1="720" x2="1600" y2="720"/><line x1="0" y1="800" x2="1600" y2="800"/><line x1="0" y1="880" x2="1600" y2="880"/></g>
  
    <rect x="380" y="230" width="840" height="440" rx="6"
          fill="none" stroke="#e6d2a8" stroke-width="1.4" opacity="0.9"/><text x="392" y="256" font-family="'Space Mono',ui-monospace,monospace"
    font-size="15" letter-spacing="1" fill="#8b96a8" opacity="0.9"
    text-anchor="start"><html></text><rect x="420" y="300" width="500" height="300" rx="6"
          fill="none" stroke="#e6d2a8" stroke-width="1.4" opacity="0.7"/><text x="432" y="326" font-family="'Space Mono',ui-monospace,monospace"
    font-size="15" letter-spacing="1" fill="#8b96a8" opacity="0.7"
    text-anchor="start"><main></text><rect x="950" y="300" width="230" height="130" rx="6"
          fill="none" stroke="#e6d2a8" stroke-width="1.4" opacity="0.7"/><text x="962" y="326" font-family="'Space Mono',ui-monospace,monospace"
    font-size="15" letter-spacing="1" fill="#8b96a8" opacity="0.7"
    text-anchor="start"><nav></text><rect x="450" y="340" width="180" height="90" rx="6"
          fill="none" stroke="#e6d2a8" stroke-width="1.4" opacity="0.6"/><text x="462" y="366" font-family="'Space Mono',ui-monospace,monospace"
    font-size="15" letter-spacing="1" fill="#8b96a8" opacity="0.6"
    text-anchor="start"><h1></text><rect x="650" y="340" width="240" height="90" rx="6"
          fill="none" stroke="#e6d2a8" stroke-width="1.4" opacity="0.6"/><text x="662" y="366" font-family="'Space Mono',ui-monospace,monospace"
    font-size="15" letter-spacing="1" fill="#8b96a8" opacity="0.6"
    text-anchor="start"><section></text><rect x="450" y="460" width="430" height="120" rx="6"
          fill="none" stroke="#e6d2a8" stroke-width="1.4" opacity="0.55"/><text x="462" y="486" font-family="'Space Mono',ui-monospace,monospace"
    font-size="15" letter-spacing="1" fill="#8b96a8" opacity="0.55"
    text-anchor="start"><article></text><rect x="950" y="460" width="230" height="130" rx="6"
          fill="none" stroke="#e6d2a8" stroke-width="1.4" opacity="0.8"/><text x="962" y="486" font-family="'Space Mono',ui-monospace,monospace"
    font-size="15" letter-spacing="1" fill="#8b96a8" opacity="0.8"
    text-anchor="start"><button></text><line x1="540" y1="300" x2="540" y2="460"
        stroke="#8b96a8" stroke-width="1" opacity="0.4"/>
    <text x="800" y="810" font-family="'Space Mono',ui-monospace,monospace"
    font-size="26" letter-spacing="8" fill="#e6d2a8" opacity="0.85"
    text-anchor="middle">THE LATTICE</text>
  
  <g stroke="#e6d2a8" stroke-width="2" opacity="0.55" fill="none">
    <path d="M46 46 h26 M46 46 v26" /><path d="M1554 46 h-26 M1554 46 v26" /><path d="M46 854 h26 M46 854 v-26" /><path d="M1554 854 h-26 M1554 854 v-26" />
  </g>
  <text x="56" y="856" font-family="'Space Mono',ui-monospace,monospace"
    font-size="22" letter-spacing="6" fill="#e6d2a8" opacity="0.85"
    text-anchor="start">QUVLO</text>
  <text x="1544" y="856" font-family="'Space Mono',ui-monospace,monospace"
    font-size="18" letter-spacing="5" fill="#8b96a8" opacity="0.7"
    text-anchor="end">LEG 3 — THE LATTICE</text>
  <text x="56" y="74" font-family="'Space Mono',ui-monospace,monospace"
    font-size="14" letter-spacing="4" fill="#8b96a8" opacity="0.5"
    text-anchor="start">PLACEHOLDER · SCROLLCRAFT WORLDFLIGHT</text>
</svg>
